<?xml version="1.0" standalone="no"?>
<!DOCTYPE svg PUBLIC "-//W3C//DTD SVG 20010904//EN"
 "http://www.w3.org/TR/2001/REC-SVG-20010904/DTD/svg10.dtd">
<svg version="1.0" xmlns="http://www.w3.org/2000/svg"
 width="910.000000pt" height="515.000000pt" viewBox="0 0 910.000000 515.000000"
 preserveAspectRatio="xMidYMid meet">

<g transform="translate(0.000000,515.000000) scale(0.100000,-0.100000)"
fill="#000000" stroke="none">
<path d="M549 5126 c-56 -15 -140 -67 -175 -108 -14 -17 -37 -54 -51 -82 -73
-141 -15 -429 128 -638 l40 -59 -75 -112 c-150 -225 -269 -514 -316 -767 -20
-106 -27 -125 -61 -170 l-39 -52 0 -280 0 -279 29 -42 c103 -151 250 -234 446
-253 l70 -7 52 -106 c49 -100 143 -251 184 -297 27 -29 24 -36 -26 -63 -59
-31 -156 -135 -189 -203 -52 -109 -56 -143 -56 -534 0 -325 -2 -369 -20 -440
-33 -135 -51 -263 -57 -420 l-6 -150 28 -22 28 -22 1697 0 1697 0 28 22 28 22
-6 150 c-6 145 -31 325 -62 446 -12 46 -15 131 -15 417 0 390 -3 419 -58 531
-34 70 -111 155 -179 199 l-52 33 74 105 c41 58 99 157 130 219 l57 114 71 7
c296 28 513 246 534 536 9 128 -38 286 -114 381 -25 30 -34 58 -52 155 -44
236 -165 536 -298 743 -141 217 -356 450 -415 450 -11 0 -33 -14 -50 -30 -24
-24 -29 -36 -23 -57 3 -15 57 -79 118 -143 219 -227 366 -473 460 -765 19 -60
38 -125 42 -144 7 -31 5 -33 -11 -26 -31 13 -147 44 -170 44 -18 1 -27 18 -59
109 -73 208 -136 296 -249 352 -115 57 -166 58 -406 6 -230 -50 -338 -60 -605
-61 -266 0 -357 10 -595 61 -233 51 -236 51 -265 24 -30 -28 -33 -68 -7 -100
21 -26 169 -64 411 -107 147 -26 173 -28 451 -28 320 0 393 7 660 66 170 37
220 37 289 3 67 -34 100 -79 151 -209 82 -211 116 -422 107 -659 -10 -247 -56
-424 -167 -651 -327 -665 -1077 -1024 -1800 -861 -633 143 -1126 658 -1246
1301 -28 150 -26 452 5 595 30 142 72 263 136 397 62 131 118 196 202 239 53
26 67 29 158 29 79 -1 134 -9 264 -39 164 -37 164 -37 190 -18 38 28 48 64 27
97 -22 33 -33 37 -233 81 -202 44 -302 48 -404 15 -82 -26 -175 -87 -229 -149
-53 -62 -149 -250 -195 -384 -32 -91 -41 -108 -59 -109 -23 0 -139 -31 -170
-44 -16 -7 -18 -5 -11 26 4 19 26 93 50 165 66 201 166 390 308 583 26 35 47
71 47 81 0 9 -25 50 -55 91 -101 134 -175 324 -175 447 0 90 60 172 143 197
43 13 71 13 220 0 310 -26 496 -35 987 -45 267 -6 535 -15 595 -20 283 -26
554 -117 819 -274 51 -31 98 -56 104 -56 50 0 90 59 72 106 -27 69 -407 253
-655 317 -240 61 -291 66 -845 77 -498 9 -735 20 -1040 45 -205 18 -230 18
-291 1z m-123 -1893 c-3 -21 -9 -118 -12 -215 -7 -196 3 -308 42 -469 13 -55
24 -103 24 -106 0 -3 -23 -3 -50 0 -75 9 -171 60 -230 123 -154 162 -157 409
-7 571 52 57 87 81 156 109 78 33 84 32 77 -13z m3612 2 c160 -73 266 -273
234 -445 -33 -181 -178 -327 -343 -347 -51 -6 -52 -6 -45 18 4 13 19 78 33
144 24 107 27 143 27 325 1 113 -3 236 -7 274 l-9 69 29 -7 c15 -4 52 -18 81
-31z m-3049 -1587 l78 -73 -105 -100 c-103 -98 -232 -257 -274 -339 -29 -55
-32 -40 -26 160 4 154 6 163 35 226 35 74 95 138 163 173 25 13 47 24 49 25 2
0 38 -33 80 -72z m2603 -21 c23 -23 55 -71 71 -106 30 -62 30 -69 35 -245 l4
-181 -73 110 c-52 79 -109 147 -201 239 l-129 129 78 73 78 72 48 -25 c26 -13
66 -43 89 -66z m-2213 -252 l51 -25 0 -316 0 -315 -47 8 c-60 10 -126 10 -180
0 l-43 -7 -1 335 c-1 184 -1 347 -2 361 -1 16 8 32 23 44 23 17 25 17 86 -21
35 -21 86 -50 113 -64z m1802 85 c18 -10 19 -25 19 -375 l0 -365 -47 8 c-62 9
-116 9 -175 -1 l-48 -8 0 313 0 313 76 40 c42 22 91 50 108 62 36 26 41 26 67
13z m322 -345 c105 -160 183 -346 227 -545 22 -97 49 -296 50 -362 l0 -38
-150 0 -149 0 14 41 c39 109 -5 271 -102 380 l-43 47 0 333 1 334 46 -50 c25
-27 73 -90 106 -140z m-2541 -530 c-93 -106 -135 -267 -97 -374 l14 -41 -151
0 -151 0 7 88 c30 391 161 741 365 982 l46 54 3 -333 2 -333 -38 -43z m811
645 l54 -11 5 -102 c5 -108 22 -164 71 -229 l24 -33 -18 -110 c-10 -60 -34
-215 -55 -343 l-37 -232 -55 0 c-52 0 -54 1 -47 23 4 12 9 52 12 88 8 108 -32
222 -108 304 l-39 42 0 331 0 331 69 -24 c38 -13 94 -28 124 -35z m997 -281
l0 -332 -35 -38 c-89 -99 -128 -266 -90 -386 7 -22 5 -23 -47 -23 l-55 0 -37
233 c-21 127 -45 282 -55 342 l-18 110 24 33 c49 65 66 121 71 227 l4 100 112
31 c61 17 114 32 119 33 4 0 7 -148 7 -330z m-390 186 c0 -70 -16 -120 -52
-161 -43 -49 -83 -67 -148 -67 -121 0 -200 89 -200 228 l0 50 200 0 200 0 0
-50z m-200 -385 c25 0 60 4 78 9 28 9 33 7 37 -12 9 -39 93 -572 90 -575 -1
-1 -94 -1 -207 0 l-205 3 44 275 c55 353 46 321 85 309 18 -5 53 -9 78 -9z
m-800 -181 c100 -30 188 -140 196 -246 6 -68 -7 -98 -55 -130 -32 -22 -42 -23
-230 -23 -177 0 -199 2 -228 20 -61 36 -75 95 -48 187 35 117 148 203 268 203
33 0 77 -5 97 -11z m1806 -13 c163 -76 230 -294 112 -366 -30 -18 -50 -20
-229 -20 -188 0 -198 1 -230 23 -48 32 -61 62 -56 128 8 101 64 181 159 228
80 40 167 43 244 7z"/>
<path d="M5073 4738 l-543 -380 0 -867 c0 -535 4 -899 10 -951 68 -558 454
-1200 1029 -1713 317 -283 632 -499 1053 -724 l178 -95 166 86 c1096 569 1862
1418 2071 2293 l28 118 0 930 0 930 -540 377 -540 378 -1185 -1 -1185 -1 -542
-380z m3152 -334 l395 -277 0 -762 c0 -827 0 -828 -57 -1009 -200 -643 -822
-1313 -1655 -1784 l-107 -60 -123 70 c-706 404 -1247 933 -1522 1488 -81 164
-129 299 -157 443 -18 91 -19 152 -19 855 l0 757 397 278 397 277 1027 0 1028
0 396 -276z"/>
<path d="M6800 3611 l0 -770 197 202 c109 111 276 282 373 379 l175 177 108
-106 108 -106 -83 -86 c-46 -47 -262 -270 -481 -495 l-397 -408 0 -764 c0
-420 4 -764 8 -764 13 0 214 127 328 206 264 184 584 478 756 694 163 204 309
459 371 646 55 168 57 200 57 903 l0 646 -298 207 -297 208 -462 0 -463 0 0
-769z"/>
<path d="M1318 3196 c-92 -25 -159 -99 -180 -199 -11 -52 -10 -59 8 -84 15
-20 31 -29 57 -31 45 -4 72 21 80 75 12 73 66 109 135 91 37 -10 72 -58 72
-99 0 -34 39 -69 77 -69 48 0 77 42 70 102 -18 152 -171 255 -319 214z"/>
<path d="M2908 3196 c-26 -7 -55 -19 -65 -26 -76 -58 -111 -112 -120 -188 -7
-61 22 -102 71 -102 39 0 76 35 76 71 0 61 65 113 127 101 38 -7 72 -47 79
-93 9 -53 34 -79 78 -79 25 0 40 7 55 26 25 32 26 54 6 120 -38 129 -178 206
-307 170z"/>
<path d="M1942 2797 c-34 -36 -29 -77 15 -120 118 -119 312 -122 437 -6 37 33
46 48 46 75 0 71 -74 96 -132 45 -49 -42 -71 -51 -128 -51 -57 0 -79 9 -128
51 -40 36 -81 37 -110 6z"/>
</g>
</svg>
